# xmcd
#
# Track frame offsets:
#	150
#	16401
#	35006
#	54292
#	68983
#	94896
#	114174
#	129930
#	146316
#	164880
#	193158
#	211517
#	230674
#	244787
#	261475
#	286315
#
# Disc length: 3832 seconds
#
# Revision: 1
# Processed by: cddbd v1.5.2PL0 Copyright (c) Steve Scherf et al.
# Submitted via: audiograbber 1.83.01
#
DISCID=e80ef610
DTITLE=COUNTRY HITS OF FEB 2005 - CB60335
DYEAR=1900
DGENRE=KARAOKE
TTITLE0=TRACE ADKINS - SONGS ABOUT ME
TTITLE1=BROOKS and DUNN - IT'S GETTING BETTER ALL THE TIME
TTITLE2=AMY DALLEY - I WOULD CRY
TTITLE3=KEITH ANDERSON - PICKIN' WILDFLOWERS
TTITLE4=KENNY CHESNEY - ANYTHING BUT MINE
TTITLE5=BLAKE LARSON - HOW DO YOU GET THAT LONELY
TTITLE6=JO DEE MESSINA - MY GIVE A DAMN'S BUSTED
TTITLE7=PHIL VASSAR - I'LL TAKE THAT AS A YES(THE HOT TUB SONG)
TTITLE8=AARON LINES - WAITIN' ON THE WONDERFUL
TTITLE9=MARTINA MCBRIDE - GOD'S WILL
TTITLE10=DARRYL WORLEY - AWEFUL, BEAUTIFUL LIFE
TTITLE11=CROSS CANADIAN RAGWEED - ALABAMA
TTITLE12=ALISON KRAUSS - RESTLESS
TTITLE13=RODNEY ATKINS - MONKEY IN THE MIDDLE
TTITLE14=BLUE COUNTRY - NOTHIN' BUT COWBOY BOOTS
TTITLE15=DATA - DATA
EXTD=
EXTT0=
EXTT1=
EXTT2=
EXTT3=
EXTT4=
EXTT5=
EXTT6=
EXTT7=
EXTT8=
EXTT9=
EXTT10=
EXTT11=
EXTT12=
EXTT13=
EXTT14=
EXTT15=
PLAYORDER=
